<?xml version="1.0" encoding="utf-8" standalone="no"?>
<!DOCTYPE svg PUBLIC "-//W3C//DTD SVG 1.1//EN"
  "http://www.w3.org/Graphics/SVG/1.1/DTD/svg11.dtd">
<!-- Created with matplotlib (https://matplotlib.org/) -->
<svg height="288pt" version="1.1" viewBox="0 0 432 288" width="432pt" xmlns="http://www.w3.org/2000/svg" xmlns:xlink="http://www.w3.org/1999/xlink">
 <defs>
  <style type="text/css">
*{stroke-linecap:butt;stroke-linejoin:round;}
  </style>
 </defs>
 <g id="figure_1">
  <g id="patch_1">
   <path d="M 0 288 
L 432 288 
L 432 0 
L 0 0 
z
" style="fill:#ffffff;"/>
  </g>
  <g id="axes_1">
   <g id="patch_2">
    <path d="M 54 252 
L 388.8 252 
L 388.8 34.56 
L 54 34.56 
z
" style="fill:#ffffff;"/>
   </g>
   <g id="matplotlib.axis_1">
    <g id="xtick_1">
     <g id="line2d_1">
      <defs>
       <path d="M 0 0 
L 0 3.5 
" id="m34d1d9500d" style="stroke:#000000;stroke-width:0.8;"/>
      </defs>
      <g>
       <use style="stroke:#000000;stroke-width:0.8;" x="66.765667" xlink:href="#m34d1d9500d" y="252"/>
      </g>
     </g>
     <g id="text_1">
      <!-- 0.4 -->
      <defs>
       <path d="M 27.78125 71.921875 
Q 51.125 71.921875 51.125 35.296875 
Q 51.125 16.796875 45.09375 7.78125 
Q 39.0625 -1.21875 27.78125 -1.21875 
Q 4.5 -1.21875 4.5 35.296875 
Q 4.5 53.8125 10.515625 62.859375 
Q 16.546875 71.921875 27.78125 71.921875 
z
M 27.78125 6 
Q 34.859375 6 38.46875 12.859375 
Q 42.09375 19.734375 42.09375 35.296875 
Q 42.09375 46.140625 40.5 52.359375 
Q 38.921875 58.59375 35.71875 61.640625 
Q 32.515625 64.703125 27.6875 64.703125 
Q 20.609375 64.703125 17.046875 57.71875 
Q 13.484375 50.734375 13.484375 35.296875 
Q 13.484375 24.609375 15.09375 18.359375 
Q 16.703125 12.109375 19.875 9.046875 
Q 23.046875 6 27.78125 6 
z
" id="ArialUnicodeMS-48"/>
       <path d="M 18.890625 0 
L 8.890625 0 
L 8.890625 10.015625 
L 18.890625 10.015625 
z
" id="ArialUnicodeMS-46"/>
       <path d="M 50.984375 17.09375 
L 41.3125 17.09375 
L 41.3125 0 
L 32.515625 0 
L 32.515625 17.09375 
L 1.515625 17.09375 
L 1.515625 25.203125 
L 34.078125 71.578125 
L 41.3125 71.578125 
L 41.3125 25.203125 
L 50.984375 25.203125 
z
M 32.515625 25.203125 
L 32.515625 57.515625 
L 32.328125 57.515625 
L 10.109375 25.203125 
z
" id="ArialUnicodeMS-52"/>
      </defs>
      <g transform="translate(59.815667 266.157812)scale(0.1 -0.1)">
       <use xlink:href="#ArialUnicodeMS-48"/>
       <use x="55.615234" xlink:href="#ArialUnicodeMS-46"/>
       <use x="83.398438" xlink:href="#ArialUnicodeMS-52"/>
      </g>
     </g>
    </g>
    <g id="xtick_2">
     <g id="line2d_2">
      <g>
       <use style="stroke:#000000;stroke-width:0.8;" x="125.354261" xlink:href="#m34d1d9500d" y="252"/>
      </g>
     </g>
     <g id="text_2">
      <!-- 0.5 -->
      <defs>
       <path d="M 15.828125 43.015625 
Q 22.359375 47.515625 29.390625 47.515625 
Q 38.328125 47.515625 44.96875 41.1875 
Q 51.609375 34.859375 51.609375 24.3125 
Q 51.609375 13.671875 44.875 6.21875 
Q 38.140625 -1.21875 27.203125 -1.21875 
Q 18.265625 -1.21875 11.71875 3.828125 
Q 5.171875 8.890625 4.203125 18.796875 
L 13.375 19.484375 
Q 14.5 12.703125 18.15625 9.34375 
Q 21.828125 6 27.203125 6 
Q 33.890625 6 38.03125 11.046875 
Q 42.1875 16.109375 42.1875 23.484375 
Q 42.1875 31 37.9375 35.34375 
Q 33.6875 39.703125 27 39.703125 
Q 18.5625 39.703125 14.015625 32.8125 
L 5.71875 33.796875 
L 12.703125 70.609375 
L 48.1875 70.609375 
L 48.1875 62.109375 
L 19.671875 62.109375 
z
" id="ArialUnicodeMS-53"/>
      </defs>
      <g transform="translate(118.404261 266.157812)scale(0.1 -0.1)">
       <use xlink:href="#ArialUnicodeMS-48"/>
       <use x="55.615234" xlink:href="#ArialUnicodeMS-46"/>
       <use x="83.398438" xlink:href="#ArialUnicodeMS-53"/>
      </g>
     </g>
    </g>
    <g id="xtick_3">
     <g id="line2d_3">
      <g>
       <use style="stroke:#000000;stroke-width:0.8;" x="183.942856" xlink:href="#m34d1d9500d" y="252"/>
      </g>
     </g>
     <g id="text_3">
      <!-- 0.6 -->
      <defs>
       <path d="M 13.09375 36.921875 
Q 19.140625 46.390625 30.328125 46.390625 
Q 39.109375 46.390625 45.265625 39.890625 
Q 51.421875 33.40625 51.421875 23.296875 
Q 51.421875 13.09375 45.28125 5.9375 
Q 39.15625 -1.21875 29 -1.21875 
Q 18.703125 -1.21875 11.453125 6.390625 
Q 4.203125 14.015625 4.203125 33.5 
Q 4.203125 52.640625 10.765625 62.28125 
Q 17.328125 71.921875 29.78125 71.921875 
Q 37.84375 71.921875 43.40625 67.421875 
Q 48.96875 62.9375 50.203125 54.109375 
L 41.40625 53.328125 
Q 39.015625 64.703125 29.296875 64.703125 
Q 22.5625 64.703125 17.71875 58 
Q 12.890625 51.3125 12.890625 36.921875 
z
M 28.8125 6 
Q 34.859375 6 38.625 10.875 
Q 42.390625 15.765625 42.390625 22.703125 
Q 42.390625 29.640625 38.625 34.171875 
Q 34.859375 38.71875 28.515625 38.71875 
Q 22.703125 38.71875 18.5 34.4375 
Q 14.3125 30.171875 14.3125 23.1875 
Q 14.3125 16.0625 18.4375 11.03125 
Q 22.5625 6 28.8125 6 
z
" id="ArialUnicodeMS-54"/>
      </defs>
      <g transform="translate(176.992856 266.157812)scale(0.1 -0.1)">
       <use xlink:href="#ArialUnicodeMS-48"/>
       <use x="55.615234" xlink:href="#ArialUnicodeMS-46"/>
       <use x="83.398438" xlink:href="#ArialUnicodeMS-54"/>
      </g>
     </g>
    </g>
    <g id="xtick_4">
     <g id="line2d_4">
      <g>
       <use style="stroke:#000000;stroke-width:0.8;" x="242.53145" xlink:href="#m34d1d9500d" y="252"/>
      </g>
     </g>
     <g id="text_4">
      <!-- 0.7 -->
      <defs>
       <path d="M 51.125 63.8125 
Q 40.578125 52.25 32.859375 35.203125 
Q 25.140625 18.171875 23.78125 0 
L 14.796875 0 
Q 15.140625 14.59375 22 32.046875 
Q 28.859375 49.515625 39.796875 62.109375 
L 4.78125 62.109375 
L 4.78125 70.609375 
L 51.125 70.609375 
z
" id="ArialUnicodeMS-55"/>
      </defs>
      <g transform="translate(235.58145 266.157812)scale(0.1 -0.1)">
       <use xlink:href="#ArialUnicodeMS-48"/>
       <use x="55.615234" xlink:href="#ArialUnicodeMS-46"/>
       <use x="83.398438" xlink:href="#ArialUnicodeMS-55"/>
      </g>
     </g>
    </g>
    <g id="xtick_5">
     <g id="line2d_5">
      <g>
       <use style="stroke:#000000;stroke-width:0.8;" x="301.120045" xlink:href="#m34d1d9500d" y="252"/>
      </g>
     </g>
     <g id="text_5">
      <!-- 0.8 -->
      <defs>
       <path d="M 37.890625 38.71875 
Q 51.3125 34.421875 51.3125 20.40625 
Q 51.3125 11.1875 44.71875 4.984375 
Q 38.140625 -1.21875 27.78125 -1.21875 
Q 17.328125 -1.21875 10.765625 5.03125 
Q 4.203125 11.28125 4.203125 20.703125 
Q 4.203125 27.484375 7.890625 32.5625 
Q 11.578125 37.640625 17.828125 38.71875 
L 17.828125 38.921875 
Q 7.078125 42.234375 7.078125 53.421875 
Q 7.078125 61.328125 12.734375 66.625 
Q 18.40625 71.921875 27.59375 71.921875 
Q 36.921875 71.921875 42.65625 66.453125 
Q 48.390625 60.984375 48.390625 53.21875 
Q 48.390625 42.671875 37.890625 38.921875 
z
M 27.78125 42.1875 
Q 32.71875 42.1875 36.0625 45.328125 
Q 39.40625 48.484375 39.40625 53.21875 
Q 39.40625 58.0625 36.015625 61.375 
Q 32.625 64.703125 27.6875 64.703125 
Q 22.65625 64.703125 19.375 61.421875 
Q 16.109375 58.15625 16.109375 53.71875 
Q 16.109375 48.390625 19.484375 45.28125 
Q 22.859375 42.1875 27.78125 42.1875 
z
M 27.78125 6 
Q 33.984375 6 38.125 10 
Q 42.28125 14.015625 42.28125 20.40625 
Q 42.28125 26.8125 38 30.90625 
Q 33.734375 35.015625 27.59375 35.015625 
Q 21.1875 35.015625 17.1875 30.78125 
Q 13.1875 26.5625 13.1875 20.609375 
Q 13.1875 14.40625 17.3125 10.203125 
Q 21.4375 6 27.78125 6 
z
" id="ArialUnicodeMS-56"/>
      </defs>
      <g transform="translate(294.170045 266.157812)scale(0.1 -0.1)">
       <use xlink:href="#ArialUnicodeMS-48"/>
       <use x="55.615234" xlink:href="#ArialUnicodeMS-46"/>
       <use x="83.398438" xlink:href="#ArialUnicodeMS-56"/>
      </g>
     </g>
    </g>
    <g id="xtick_6">
     <g id="line2d_6">
      <g>
       <use style="stroke:#000000;stroke-width:0.8;" x="359.708639" xlink:href="#m34d1d9500d" y="252"/>
      </g>
     </g>
     <g id="text_6">
      <!-- 0.9 -->
      <defs>
       <path d="M 42.390625 33.6875 
Q 39.796875 29.5 35.28125 26.90625 
Q 30.765625 24.3125 25.484375 24.3125 
Q 16.65625 24.3125 10.46875 30.78125 
Q 4.296875 37.25 4.296875 47.703125 
Q 4.296875 58.34375 10.59375 65.125 
Q 16.890625 71.921875 26.8125 71.921875 
Q 36.765625 71.921875 44.03125 64.15625 
Q 51.3125 56.390625 51.3125 37.3125 
Q 51.3125 17.921875 44.671875 8.34375 
Q 38.03125 -1.21875 25.6875 -1.21875 
Q 17.625 -1.21875 12.203125 3.203125 
Q 6.78125 7.625 5.609375 16.609375 
L 14.015625 17.28125 
Q 16.015625 6 25.875 6 
Q 33.984375 6 38.28125 13.390625 
Q 42.578125 20.796875 42.578125 33.6875 
z
M 27.59375 31.984375 
Q 34.03125 31.984375 37.8125 36.546875 
Q 41.609375 41.109375 41.609375 48.09375 
Q 41.609375 55.171875 37.71875 59.9375 
Q 33.84375 64.703125 27.78125 64.703125 
Q 21.6875 64.703125 17.484375 59.640625 
Q 13.28125 54.59375 13.28125 47.40625 
Q 13.28125 40.625 17.40625 36.296875 
Q 21.53125 31.984375 27.59375 31.984375 
z
" id="ArialUnicodeMS-57"/>
      </defs>
      <g transform="translate(352.758639 266.157812)scale(0.1 -0.1)">
       <use xlink:href="#ArialUnicodeMS-48"/>
       <use x="55.615234" xlink:href="#ArialUnicodeMS-46"/>
       <use x="83.398438" xlink:href="#ArialUnicodeMS-57"/>
      </g>
     </g>
    </g>
   </g>
   <g id="matplotlib.axis_2">
    <g id="ytick_1">
     <g id="line2d_7">
      <defs>
       <path d="M 0 0 
L -3.5 0 
" id="m883ed7c209" style="stroke:#000000;stroke-width:0.8;"/>
      </defs>
      <g>
       <use style="stroke:#000000;stroke-width:0.8;" x="54" xlink:href="#m883ed7c209" y="249.213219"/>
      </g>
     </g>
     <g id="text_7">
      <!-- 0.2 -->
      <defs>
       <path d="M 50.484375 0 
L 3.078125 0 
Q 3.078125 6.0625 7.296875 12.25 
Q 11.53125 18.453125 23.09375 27.78125 
Q 30.171875 33.453125 35.734375 39.671875 
Q 41.3125 45.90625 41.3125 52.203125 
Q 41.3125 57.625 37.46875 61.15625 
Q 33.640625 64.703125 27.78125 64.703125 
Q 21.875 64.703125 17.875 61.0625 
Q 13.875 57.421875 13.8125 50.203125 
L 4.78125 51.21875 
Q 5.609375 61.28125 11.9375 66.59375 
Q 18.265625 71.921875 27.984375 71.921875 
Q 38.53125 71.921875 44.40625 66.078125 
Q 50.296875 60.25 50.296875 52 
Q 50.296875 45.125 45.328125 38.0625 
Q 40.375 31 25.59375 19.1875 
Q 17.828125 12.984375 15.28125 8.5 
L 50.484375 8.5 
z
" id="ArialUnicodeMS-50"/>
      </defs>
      <g transform="translate(33.1 252.792125)scale(0.1 -0.1)">
       <use xlink:href="#ArialUnicodeMS-48"/>
       <use x="55.615234" xlink:href="#ArialUnicodeMS-46"/>
       <use x="83.398438" xlink:href="#ArialUnicodeMS-50"/>
      </g>
     </g>
    </g>
    <g id="ytick_2">
     <g id="line2d_8">
      <g>
       <use style="stroke:#000000;stroke-width:0.8;" x="54" xlink:href="#m883ed7c209" y="218.838848"/>
      </g>
     </g>
     <g id="text_8">
      <!-- 0.3 -->
      <defs>
       <path d="M 37.890625 38.71875 
Q 44.53125 37.453125 47.921875 32.296875 
Q 51.3125 27.15625 51.3125 21.09375 
Q 51.3125 11.328125 44.203125 5.046875 
Q 37.109375 -1.21875 27.203125 -1.21875 
Q 17.71875 -1.21875 11.5625 4.296875 
Q 5.421875 9.8125 4.390625 18.890625 
L 13.1875 20.125 
Q 14.5 13.03125 17.984375 9.515625 
Q 21.484375 6 27.203125 6 
Q 33.34375 6 37.609375 10.328125 
Q 41.890625 14.65625 41.890625 20.90625 
Q 41.890625 26.90625 38 30.859375 
Q 34.125 34.8125 27.875 34.8125 
Q 25.34375 34.8125 21.6875 33.890625 
L 22.703125 41.609375 
Q 26.21875 41.609375 28.265625 41.9375 
Q 30.328125 42.28125 32.859375 43.59375 
Q 35.40625 44.921875 37.0625 47.390625 
Q 38.71875 49.859375 38.71875 53.515625 
Q 38.71875 58.84375 35.171875 61.765625 
Q 31.640625 64.703125 27 64.703125 
Q 21.6875 64.703125 18.328125 61.328125 
Q 14.984375 57.953125 14.109375 51.703125 
L 5.328125 53.328125 
Q 7.03125 62.640625 12.859375 67.28125 
Q 18.703125 71.921875 26.8125 71.921875 
Q 35.75 71.921875 41.71875 66.53125 
Q 47.703125 61.140625 47.703125 53.328125 
Q 47.703125 43.3125 37.890625 38.921875 
z
" id="ArialUnicodeMS-51"/>
      </defs>
      <g transform="translate(33.1 222.417754)scale(0.1 -0.1)">
       <use xlink:href="#ArialUnicodeMS-48"/>
       <use x="55.615234" xlink:href="#ArialUnicodeMS-46"/>
       <use x="83.398438" xlink:href="#ArialUnicodeMS-51"/>
      </g>
     </g>
    </g>
    <g id="ytick_3">
     <g id="line2d_9">
      <g>
       <use style="stroke:#000000;stroke-width:0.8;" x="54" xlink:href="#m883ed7c209" y="188.464476"/>
      </g>
     </g>
     <g id="text_9">
      <!-- 0.4 -->
      <g transform="translate(33.1 192.043382)scale(0.1 -0.1)">
       <use xlink:href="#ArialUnicodeMS-48"/>
       <use x="55.615234" xlink:href="#ArialUnicodeMS-46"/>
       <use x="83.398438" xlink:href="#ArialUnicodeMS-52"/>
      </g>
     </g>
    </g>
    <g id="ytick_4">
     <g id="line2d_10">
      <g>
       <use style="stroke:#000000;stroke-width:0.8;" x="54" xlink:href="#m883ed7c209" y="158.090105"/>
      </g>
     </g>
     <g id="text_10">
      <!-- 0.5 -->
      <g transform="translate(33.1 161.669011)scale(0.1 -0.1)">
       <use xlink:href="#ArialUnicodeMS-48"/>
       <use x="55.615234" xlink:href="#ArialUnicodeMS-46"/>
       <use x="83.398438" xlink:href="#ArialUnicodeMS-53"/>
      </g>
     </g>
    </g>
    <g id="ytick_5">
     <g id="line2d_11">
      <g>
       <use style="stroke:#000000;stroke-width:0.8;" x="54" xlink:href="#m883ed7c209" y="127.715733"/>
      </g>
     </g>
     <g id="text_11">
      <!-- 0.6 -->
      <g transform="translate(33.1 131.29464)scale(0.1 -0.1)">
       <use xlink:href="#ArialUnicodeMS-48"/>
       <use x="55.615234" xlink:href="#ArialUnicodeMS-46"/>
       <use x="83.398438" xlink:href="#ArialUnicodeMS-54"/>
      </g>
     </g>
    </g>
    <g id="ytick_6">
     <g id="line2d_12">
      <g>
       <use style="stroke:#000000;stroke-width:0.8;" x="54" xlink:href="#m883ed7c209" y="97.341362"/>
      </g>
     </g>
     <g id="text_12">
      <!-- 0.7 -->
      <g transform="translate(33.1 100.920268)scale(0.1 -0.1)">
       <use xlink:href="#ArialUnicodeMS-48"/>
       <use x="55.615234" xlink:href="#ArialUnicodeMS-46"/>
       <use x="83.398438" xlink:href="#ArialUnicodeMS-55"/>
      </g>
     </g>
    </g>
    <g id="ytick_7">
     <g id="line2d_13">
      <g>
       <use style="stroke:#000000;stroke-width:0.8;" x="54" xlink:href="#m883ed7c209" y="66.96699"/>
      </g>
     </g>
     <g id="text_13">
      <!-- 0.8 -->
      <g transform="translate(33.1 70.545897)scale(0.1 -0.1)">
       <use xlink:href="#ArialUnicodeMS-48"/>
       <use x="55.615234" xlink:href="#ArialUnicodeMS-46"/>
       <use x="83.398438" xlink:href="#ArialUnicodeMS-56"/>
      </g>
     </g>
    </g>
    <g id="ytick_8">
     <g id="line2d_14">
      <g>
       <use style="stroke:#000000;stroke-width:0.8;" x="54" xlink:href="#m883ed7c209" y="36.592619"/>
      </g>
     </g>
     <g id="text_14">
      <!-- 0.9 -->
      <g transform="translate(33.1 40.171525)scale(0.1 -0.1)">
       <use xlink:href="#ArialUnicodeMS-48"/>
       <use x="55.615234" xlink:href="#ArialUnicodeMS-46"/>
       <use x="83.398438" xlink:href="#ArialUnicodeMS-57"/>
      </g>
     </g>
    </g>
   </g>
   <g id="line2d_15">
    <path clip-path="url(#pff091104f8)" d="M 271.445137 84.60164 
L 254.757938 69.41757 
L 128.460409 186.519736 
L 148.529391 114.740686 
L 250.919768 242.116364 
L 119.783275 44.443636 
L 178.378677 68.73928 
L 373.581818 218.343226 
L 373.472233 198.212273 
L 69.218182 61.582661 
" style="fill:none;stroke:#1f77b4;stroke-linecap:square;stroke-width:1.5;"/>
   </g>
   <g id="patch_3">
    <path d="M 54 252 
L 54 34.56 
" style="fill:none;stroke:#000000;stroke-linecap:square;stroke-linejoin:miter;stroke-width:0.8;"/>
   </g>
   <g id="patch_4">
    <path d="M 388.8 252 
L 388.8 34.56 
" style="fill:none;stroke:#000000;stroke-linecap:square;stroke-linejoin:miter;stroke-width:0.8;"/>
   </g>
   <g id="patch_5">
    <path d="M 54 252 
L 388.8 252 
" style="fill:none;stroke:#000000;stroke-linecap:square;stroke-linejoin:miter;stroke-width:0.8;"/>
   </g>
   <g id="patch_6">
    <path d="M 54 34.56 
L 388.8 34.56 
" style="fill:none;stroke:#000000;stroke-linecap:square;stroke-linejoin:miter;stroke-width:0.8;"/>
   </g>
  </g>
 </g>
 <defs>
  <clipPath id="pff091104f8">
   <rect height="217.44" width="334.8" x="54" y="34.56"/>
  </clipPath>
 </defs>
</svg>
