<svg id="SvgjsSvg1170" width="556.5" height="424" xmlns="http://www.w3.org/2000/svg" version="1.1" xmlns:xlink="http://www.w3.org/1999/xlink" xmlns:svgjs="http://svgjs.com/svgjs"><defs id="SvgjsDefs1171"></defs><g id="SvgjsG1172" transform="translate(38.5,138)"><path id="SvgjsPath1173" d="M 0 0L 292 0L 292 128L 0 128Z" stroke-dasharray="10,6" stroke="rgba(50,50,50,1)" stroke-width="2" fill-opacity="1" fill="#ccccff"></path><g id="SvgjsG1174"><text id="SvgjsText1175" font-family="微软雅黑" text-anchor="middle" font-size="13px" width="272px" fill="#323232" font-weight="400" align="middle" anchor="middle" family="微软雅黑" size="13px" weight="400" font-style="" opacity="1" y="54.05" transform="rotate(0)"></text></g></g><g id="SvgjsG1176" transform="translate(27.5,359)"><path id="SvgjsPath1177" d="M 0 0L 60 0L 60 40L 0 40Z" stroke="rgba(50,50,50,1)" stroke-width="2" fill-opacity="1" fill="#ffcccc"></path><g id="SvgjsG1178"><text id="SvgjsText1179" font-family="微软雅黑" text-anchor="middle" font-size="13px" width="40px" fill="#323232" font-weight="400" align="middle" anchor="middle" family="微软雅黑" size="13px" weight="400" font-style="" opacity="1" y="10.05" transform="rotate(0)"><tspan id="SvgjsTspan1180" dy="16" x="30"><tspan id="SvgjsTspan1181" style="text-decoration:;">ctr1</tspan></tspan></text></g></g><g id="SvgjsG1182" transform="translate(87.5,359)"><path id="SvgjsPath1183" d="M 0 0L 60 0L 60 40L 0 40Z" stroke="rgba(50,50,50,1)" stroke-width="2" fill-opacity="1" fill="#ffffcc"></path><g id="SvgjsG1184"><text id="SvgjsText1185" font-family="微软雅黑" text-anchor="middle" font-size="13px" width="40px" fill="#323232" font-weight="400" align="middle" anchor="middle" family="微软雅黑" size="13px" weight="400" font-style="" opacity="1" y="10.05" transform="rotate(0)"><tspan id="SvgjsTspan1186" dy="16" x="30"><tspan id="SvgjsTspan1187" style="text-decoration:;">pv1</tspan></tspan></text></g></g><g id="SvgjsG1188" transform="translate(147.5,359)"><path id="SvgjsPath1189" d="M 0 0L 60 0L 60 40L 0 40Z" stroke="rgba(50,50,50,1)" stroke-width="2" fill-opacity="1" fill="#ffcccc"></path><g id="SvgjsG1190"><text id="SvgjsText1191" font-family="微软雅黑" text-anchor="middle" font-size="13px" width="40px" fill="#323232" font-weight="400" align="middle" anchor="middle" family="微软雅黑" size="13px" weight="400" font-style="" opacity="1" y="10.05" transform="rotate(0)"><tspan id="SvgjsTspan1192" dy="16" x="30"><tspan id="SvgjsTspan1193" style="text-decoration:;">ctr2</tspan></tspan></text></g></g><g id="SvgjsG1194" transform="translate(207.5,359)"><path id="SvgjsPath1195" d="M 0 0L 60 0L 60 40L 0 40Z" stroke="rgba(50,50,50,1)" stroke-width="2" fill-opacity="1" fill="#ffffcc"></path><g id="SvgjsG1196"><text id="SvgjsText1197" font-family="微软雅黑" text-anchor="middle" font-size="13px" width="40px" fill="#323232" font-weight="400" align="middle" anchor="middle" family="微软雅黑" size="13px" weight="400" font-style="" opacity="1" y="10.05" transform="rotate(0)"><tspan id="SvgjsTspan1198" dy="16" x="30"><tspan id="SvgjsTspan1199" style="text-decoration:;">pv2</tspan></tspan></text></g></g><g id="SvgjsG1200" transform="translate(267.5,359)"><path id="SvgjsPath1201" d="M 0 0L 144 0L 144 40L 0 40Z" stroke="rgba(50,50,50,1)" stroke-width="2" fill-opacity="1" fill="#ffffff"></path><g id="SvgjsG1202"><text id="SvgjsText1203" font-family="微软雅黑" text-anchor="middle" font-size="13px" width="124px" fill="#323232" font-weight="400" align="middle" anchor="middle" family="微软雅黑" size="13px" weight="400" font-style="" opacity="1" y="10.05" transform="rotate(0)"><tspan id="SvgjsTspan1204" dy="16" x="72"><tspan id="SvgjsTspan1205" style="text-decoration:;">...</tspan></tspan></text></g></g><g id="SvgjsG1206" transform="translate(411.5,359)"><path id="SvgjsPath1207" d="M 0 0L 60 0L 60 40L 0 40Z" stroke="rgba(50,50,50,1)" stroke-width="2" fill-opacity="1" fill="#ffcccc"></path><g id="SvgjsG1208"><text id="SvgjsText1209" font-family="微软雅黑" text-anchor="middle" font-size="13px" width="40px" fill="#323232" font-weight="400" align="middle" anchor="middle" family="微软雅黑" size="13px" weight="400" font-style="" opacity="1" y="10.05" transform="rotate(0)"><tspan id="SvgjsTspan1210" dy="16" x="30"><tspan id="SvgjsTspan1211" style="text-decoration:;">ctrn</tspan></tspan></text></g></g><g id="SvgjsG1212" transform="translate(471.5,359)"><path id="SvgjsPath1213" d="M 0 0L 60 0L 60 40L 0 40Z" stroke="rgba(50,50,50,1)" stroke-width="2" fill-opacity="1" fill="#ffffcc"></path><g id="SvgjsG1214"><text id="SvgjsText1215" font-family="微软雅黑" text-anchor="middle" font-size="13px" width="40px" fill="#323232" font-weight="400" align="middle" anchor="middle" family="微软雅黑" size="13px" weight="400" font-style="" opacity="1" y="10.05" transform="rotate(0)"><tspan id="SvgjsTspan1216" dy="16" x="30"><tspan id="SvgjsTspan1217" style="text-decoration:;">pvn</tspan></tspan></text></g></g><g id="SvgjsG1218" transform="translate(65,289)"><path id="SvgjsPath1219" d="M 0 20.5C 0 -6.833333333333333 41 -6.833333333333333 41 20.5C 41 47.833333333333336 0 47.833333333333336 0 20.5Z" stroke="rgba(50,50,50,1)" stroke-width="2" fill-opacity="1" fill="#ccffcc"></path><g id="SvgjsG1220"><text id="SvgjsText1221" font-family="微软雅黑" text-anchor="middle" font-size="13px" width="21px" fill="#323232" font-weight="400" align="middle" anchor="middle" family="微软雅黑" size="13px" weight="400" font-style="" opacity="1" y="10.55" transform="rotate(0)"><tspan id="SvgjsTspan1222" dy="16" x="20.5"><tspan id="SvgjsTspan1223" style="text-decoration:;">x</tspan></tspan></text></g></g><g id="SvgjsG1224"><path id="SvgjsPath1225" d="M57.5 359L85.5 330" stroke="#323232" stroke-width="2" fill="none"></path></g><g id="SvgjsG1226"><path id="SvgjsPath1227" d="M117.5 359L85.5 330" stroke="#323232" stroke-width="2" fill="none"></path></g><g id="SvgjsG1228" transform="translate(188.5,289)"><path id="SvgjsPath1229" d="M 0 20.5C 0 -6.833333333333333 41 -6.833333333333333 41 20.5C 41 47.833333333333336 0 47.833333333333336 0 20.5Z" stroke="rgba(50,50,50,1)" stroke-width="2" fill-opacity="1" fill="#ccffcc"></path><g id="SvgjsG1230"><text id="SvgjsText1231" font-family="微软雅黑" text-anchor="middle" font-size="13px" width="21px" fill="#323232" font-weight="400" align="middle" anchor="middle" family="微软雅黑" size="13px" weight="400" font-style="" opacity="1" y="10.55" transform="rotate(0)"><tspan id="SvgjsTspan1232" dy="16" x="20.5"><tspan id="SvgjsTspan1233" style="text-decoration:;">x</tspan></tspan></text></g></g><g id="SvgjsG1234" transform="translate(450.5,289)"><path id="SvgjsPath1235" d="M 0 20.5C 0 -6.833333333333333 41 -6.833333333333333 41 20.5C 41 47.833333333333336 0 47.833333333333336 0 20.5Z" stroke="rgba(50,50,50,1)" stroke-width="2" fill-opacity="1" fill="#ccffcc"></path><g id="SvgjsG1236"><text id="SvgjsText1237" font-family="微软雅黑" text-anchor="middle" font-size="13px" width="21px" fill="#323232" font-weight="400" align="middle" anchor="middle" family="微软雅黑" size="13px" weight="400" font-style="" opacity="1" y="10.55" transform="rotate(0)"><tspan id="SvgjsTspan1238" dy="16" x="20.5"><tspan id="SvgjsTspan1239" style="text-decoration:;">x</tspan></tspan></text></g></g><g id="SvgjsG1240"><path id="SvgjsPath1241" d="M177.5 359L209 330" stroke="#323232" stroke-width="2" fill="none"></path></g><g id="SvgjsG1242"><path id="SvgjsPath1243" d="M237.5 359L209 330" stroke="#323232" stroke-width="2" fill="none"></path></g><g id="SvgjsG1244"><path id="SvgjsPath1245" d="M441.5 359L471 330" stroke="#323232" stroke-width="2" fill="none"></path></g><g id="SvgjsG1246"><path id="SvgjsPath1247" d="M501.5 359L471 330" stroke="#323232" stroke-width="2" fill="none"></path></g><g id="SvgjsG1248" transform="translate(55,221)"><path id="SvgjsPath1249" d="M 0 0L 60 0L 60 34L 0 34Z" stroke="rgba(50,50,50,1)" stroke-width="2" fill-opacity="1" fill="#ccffff"></path><g id="SvgjsG1250"><text id="SvgjsText1251" font-family="微软雅黑" text-anchor="middle" font-size="13px" width="40px" fill="#323232" font-weight="400" align="middle" anchor="middle" family="微软雅黑" size="13px" weight="400" font-style="" opacity="1" y="7.05" transform="rotate(0)"><tspan id="SvgjsTspan1252" dy="16" x="30"><tspan id="SvgjsTspan1253" style="text-decoration:;">sum1</tspan></tspan></text></g></g><g id="SvgjsG1254"><path id="SvgjsPath1255" d="M85.5 289L85.5 272L85 272L85 255" stroke="#323232" stroke-width="2" fill="none"></path></g><g id="SvgjsG1256" transform="translate(115,221)"><path id="SvgjsPath1257" d="M 0 0L 60 0L 60 34L 0 34Z" stroke="rgba(50,50,50,1)" stroke-width="2" fill-opacity="1" fill="#ccffff"></path><g id="SvgjsG1258"><text id="SvgjsText1259" font-family="微软雅黑" text-anchor="middle" font-size="13px" width="40px" fill="#323232" font-weight="400" align="middle" anchor="middle" family="微软雅黑" size="13px" weight="400" font-style="" opacity="1" y="7.05" transform="rotate(0)"><tspan id="SvgjsTspan1260" dy="16" x="30"><tspan id="SvgjsTspan1261" style="text-decoration:;">sum2</tspan></tspan></text></g></g><g id="SvgjsG1262" transform="translate(175,221)"><path id="SvgjsPath1263" d="M 0 0L 81 0L 81 34L 0 34Z" stroke="rgba(50,50,50,1)" stroke-width="2" fill-opacity="1" fill="#ccffff"></path><g id="SvgjsG1264"><text id="SvgjsText1265" font-family="微软雅黑" text-anchor="middle" font-size="13px" width="61px" fill="#323232" font-weight="400" align="middle" anchor="middle" family="微软雅黑" size="13px" weight="400" font-style="" opacity="1" y="7.05" transform="rotate(0)"><tspan id="SvgjsTspan1266" dy="16" x="40.5"><tspan id="SvgjsTspan1267" style="text-decoration:;">...</tspan></tspan></text></g></g><g id="SvgjsG1268" transform="translate(256,221)"><path id="SvgjsPath1269" d="M 0 0L 60 0L 60 34L 0 34Z" stroke="rgba(50,50,50,1)" stroke-width="2" fill-opacity="1" fill="#ccffff"></path><g id="SvgjsG1270"><text id="SvgjsText1271" font-family="微软雅黑" text-anchor="middle" font-size="13px" width="40px" fill="#323232" font-weight="400" align="middle" anchor="middle" family="微软雅黑" size="13px" weight="400" font-style="" opacity="1" y="7.05" transform="rotate(0)"><tspan id="SvgjsTspan1272" dy="16" x="30"><tspan id="SvgjsTspan1273" style="text-decoration:;">sumn</tspan></tspan></text></g></g><g id="SvgjsG1274"><path id="SvgjsPath1275" d="M209 289L209 272L145 272L145 255" stroke="#323232" stroke-width="2" fill="none"></path></g><g id="SvgjsG1276"><path id="SvgjsPath1277" d="M471 289L471 272L286 272L286 255" stroke="#323232" stroke-width="2" fill="none"></path></g><g id="SvgjsG1278" transform="translate(376.5,275)"><path id="SvgjsPath1279" d="M 0 20.5C 0 -6.833333333333333 41 -6.833333333333333 41 20.5C 41 47.833333333333336 0 47.833333333333336 0 20.5Z" stroke="rgba(50,50,50,1)" stroke-width="2" fill-opacity="1" fill="#ccffcc"></path><g id="SvgjsG1280"><text id="SvgjsText1281" font-family="微软雅黑" text-anchor="middle" font-size="13px" width="21px" fill="#323232" font-weight="400" align="middle" anchor="middle" family="微软雅黑" size="13px" weight="400" font-style="" opacity="1" y="10.55" transform="rotate(0)"><tspan id="SvgjsTspan1282" dy="16" x="20.5"><tspan id="SvgjsTspan1283" style="text-decoration:;">+</tspan></tspan></text></g></g><g id="SvgjsG1284" transform="translate(152,146)"><path id="SvgjsPath1285" d="M 0 0L 65 0L 65 35L 0 35Z" stroke="rgba(50,50,50,1)" stroke-width="2" fill-opacity="1" fill="#ccffff"></path><g id="SvgjsG1286"><text id="SvgjsText1287" font-family="微软雅黑" text-anchor="middle" font-size="13px" width="45px" fill="#323232" font-weight="400" align="middle" anchor="middle" family="微软雅黑" size="13px" weight="400" font-style="" opacity="1" y="7.55" transform="rotate(0)"><tspan id="SvgjsTspan1288" dy="16" x="32.5"><tspan id="SvgjsTspan1289" style="text-decoration:;">加权和</tspan></tspan></text></g></g><g id="SvgjsG1290"><path id="SvgjsPath1291" d="M85 221L184.5 181" stroke="#323232" stroke-width="2" fill="none"></path></g><g id="SvgjsG1292"><path id="SvgjsPath1293" d="M145 221L184.5 181" stroke="#323232" stroke-width="2" fill="none"></path></g><g id="SvgjsG1294"><path id="SvgjsPath1295" d="M286 221L184.5 181" stroke="#323232" stroke-width="2" fill="none"></path></g><g id="SvgjsG1296"><path id="SvgjsPath1297" d="M397 316L117.5 359" stroke="#323232" stroke-width="2" fill="none"></path></g><g id="SvgjsG1298" transform="translate(364.5,146)"><path id="SvgjsPath1299" d="M 0 0L 65 0L 65 35L 0 35Z" stroke="rgba(50,50,50,1)" stroke-width="2" fill-opacity="1" fill="#ffffcc"></path><g id="SvgjsG1300"><text id="SvgjsText1301" font-family="微软雅黑" text-anchor="middle" font-size="13px" width="45px" fill="#323232" font-weight="400" align="middle" anchor="middle" family="微软雅黑" size="13px" weight="400" font-style="" opacity="1" y="7.55" transform="rotate(0)"><tspan id="SvgjsTspan1302" dy="16" x="32.5"><tspan id="SvgjsTspan1303" style="text-decoration:;">总pv</tspan></tspan></text></g></g><g id="SvgjsG1304"><path id="SvgjsPath1305" d="M397 275L397 181" stroke="#323232" stroke-width="2" fill="none"></path></g><g id="SvgjsG1306" transform="translate(265.5,70.5)"><path id="SvgjsPath1307" d="M 0 20.5C 0 -6.833333333333333 41 -6.833333333333333 41 20.5C 41 47.833333333333336 0 47.833333333333336 0 20.5Z" stroke="rgba(50,50,50,1)" stroke-width="2" fill-opacity="1" fill="#ccffcc"></path><g id="SvgjsG1308"><text id="SvgjsText1309" font-family="微软雅黑" text-anchor="middle" font-size="13px" width="21px" fill="#323232" font-weight="400" align="middle" anchor="middle" family="微软雅黑" size="13px" weight="400" font-style="" opacity="1" y="10.55" transform="rotate(0)"><tspan id="SvgjsTspan1310" dy="16" x="20.5"><tspan id="SvgjsTspan1311" style="text-decoration:;">/</tspan></tspan></text></g></g><g id="SvgjsG1312"><path id="SvgjsPath1313" d="M184.5 146L286 111.5" stroke="#323232" stroke-width="2" fill="none"></path></g><g id="SvgjsG1314"><path id="SvgjsPath1315" d="M286 111.5L397 146" stroke="#323232" stroke-width="2" fill="none"></path></g><g id="SvgjsG1316" transform="translate(228.5,25)"><path id="SvgjsPath1317" d="M 0 0L 115 0L 115 38L 0 38Z" stroke="rgba(50,50,50,1)" stroke-width="2" fill-opacity="1" fill="#ffcccc"></path><g id="SvgjsG1318"><text id="SvgjsText1319" font-family="微软雅黑" text-anchor="middle" font-size="13px" width="95px" fill="#323232" font-weight="400" align="middle" anchor="middle" family="微软雅黑" size="13px" weight="400" font-style="" opacity="1" y="9.05" transform="rotate(0)"><tspan id="SvgjsTspan1320" dy="16" x="57.5"><tspan id="SvgjsTspan1321" style="text-decoration:;">预测的ctrn+1</tspan></tspan></text></g></g><g id="SvgjsG1322"><path id="SvgjsPath1323" d="M286 70.5L286 63" stroke="#323232" stroke-width="2" fill="none"></path></g><g id="SvgjsG1324"><path id="SvgjsPath1325" d="M397 316L501.5 359" stroke="#323232" stroke-width="2" fill="none"></path></g><g id="SvgjsG1326"><path id="SvgjsPath1327" d="M397 316L237.5 359" stroke="#323232" stroke-width="2" fill="none"></path></g><g id="SvgjsG1328" transform="translate(25,143.5)"><path id="SvgjsPath1329" d="M 0 0L 120 0L 120 40L 0 40Z" stroke="none" fill="none"></path><g id="SvgjsG1330"><text id="SvgjsText1331" font-family="微软雅黑" text-anchor="middle" font-size="13px" width="120px" fill="#323232" font-weight="400" align="middle" anchor="middle" family="微软雅黑" size="13px" weight="400" font-style="" opacity="1" y="10.05" transform="rotate(0)"><tspan id="SvgjsTspan1332" dy="16" x="60"><tspan id="SvgjsTspan1333" style="text-decoration:;">nn.Linear</tspan></tspan></text></g></g></svg>